# xmcd
#
# Track frame offsets:
#	150
#	10791
#	20515
#	33321
#	44256
#	54584
#	64006
#	73738
#	85954
#	96145
#	106386
#	116018
#
# Disc length: 1677 seconds
#
# Revision: 0
# Processed by: cddbd v1.5.2PL0 Copyright (c) Steve Scherf et al.
# Submitted via: audiograbber 1.83.01
#
DISCID=9a068b0c
DTITLE=Little Richard  - King Of Rock Vol. 1
DYEAR=1900
DGENRE=Rock and Roll
TTITLE0=tutti frutti
TTITLE1=baby face
TTITLE2=wondering
TTITLE3=annie is back
TTITLE4=boo hoo hoo hoo (i'll never let you go)
TTITLE5=ready teddy
TTITLE6=long tall sally
TTITLE7=slipin' and slidin'
TTITLE8=well allright
TTITLE9=miss ann
TTITLE10=oh why
TTITLE11=keep a-knockin'
EXTD=
EXTT0=
EXTT1=
EXTT2=
EXTT3=
EXTT4=
EXTT5=
EXTT6=
EXTT7=
EXTT8=
EXTT9=
EXTT10=
EXTT11=
PLAYORDER=
